<svg width="220" height="40" viewBox="0 0 310 57" fill="none" xmlns="http://www.w3.org/2000/svg">
<path d="M8.30957 33.9697C6.5127 33.9697 4.94531 33.252 3.60742 31.8164C2.86523 30.9668 2.19141 30.0684 1.58594 29.1211C1.09766 28.3105 0.853516 27.4219 0.853516 26.4551C0.853516 24.6777 1.19043 22.9004 1.86426 21.123C2.87988 18.2129 4.53516 15.2441 6.83008 12.2168C7.89453 10.7617 9.08594 9.41895 10.4043 8.18848C11.625 7.09473 12.6162 6.54785 13.3779 6.54785C13.8174 6.54785 14.2568 6.68945 14.6963 6.97266C15.0479 7.20703 15.4238 7.39258 15.8242 7.5293C15.9902 7.58789 16.166 7.66602 16.3516 7.76367C18.9492 9.02344 20.2676 11.1572 20.3066 14.165L20.3213 14.5166C20.3018 14.6143 20.292 14.8926 20.292 15.3516C20.292 16.5723 20.1016 17.1826 19.7207 17.1826C19.6035 17.1826 19.4668 17.1289 19.3105 17.0215C18.4512 16.4648 17.8701 15.6934 17.5674 14.707C17.3721 13.9941 17.2354 13.2715 17.1572 12.5391C17.1084 12.041 17.0303 11.5527 16.9229 11.0742C16.7861 10.6445 16.5371 10.4297 16.1758 10.4297C15.8438 10.4297 15.4238 10.5957 14.916 10.9277C14.291 11.3281 13.7295 11.8066 13.2314 12.3633C9.5791 16.3867 7.04492 20.7275 5.62891 25.3857C5.22852 26.6748 5.02832 27.8906 5.02832 29.0332C5.02832 29.2383 5.03809 29.4482 5.05762 29.6631C5.09668 30.376 5.43848 30.7324 6.08301 30.7324C6.49316 30.7324 7.01074 30.6201 7.63574 30.3955C10.4482 29.5068 14.3057 27.5146 19.208 24.4189C21.083 23.2471 22.0889 22.6611 22.2256 22.6611C22.4111 22.6611 22.5039 22.749 22.5039 22.9248C22.5039 24.3506 22.1133 25.4639 21.332 26.2646C21.0293 26.5576 20.7314 26.8604 20.4385 27.1729C19.2178 28.5107 17.7578 29.7119 16.0586 30.7764C15.668 31.0205 15.2822 31.2793 14.9014 31.5527C14.5889 31.7676 14.2715 31.9775 13.9492 32.1826C12.582 33.042 11.1123 33.6035 9.54004 33.8672C9.12012 33.9355 8.70996 33.9697 8.30957 33.9697ZM30.2969 34.0283C29.584 34.0283 28.8857 33.8867 28.2021 33.6035C27.3916 33.2715 26.835 32.9883 26.5322 32.7539C26.415 32.6758 26.293 32.6074 26.166 32.5488C25.1406 32.0703 24.5352 31.2158 24.3496 29.9854C24.252 29.3701 24.2031 28.75 24.2031 28.125L24.2471 26.7627C24.208 26.0889 24.1885 25.4102 24.1885 24.7266C24.1885 23.584 24.2422 22.4365 24.3496 21.2842C24.6816 16.3721 25.2334 11.4795 26.0049 6.60645C26.2881 4.74121 26.625 2.89062 27.0156 1.05469C27.084 0.712891 27.1816 0.488281 27.3086 0.380859C27.4355 0.273438 27.7285 0.219727 28.1875 0.219727C28.7637 0.219727 29.335 0.317383 29.9014 0.512695C30.4678 0.708008 30.8779 0.991211 31.1318 1.3623C31.3955 1.72363 31.542 2.24609 31.5713 2.92969C31.542 3.80859 31.4492 4.76074 31.293 5.78613L30.9121 8.27637C30.4434 11.2744 30.0332 14.6387 29.6816 18.3691C29.3594 21.1328 29.1543 24.2041 29.0664 27.583C29.0664 28.0127 29.0908 28.3105 29.1396 28.4766C29.1885 28.6328 29.2959 28.7109 29.4619 28.7109C29.6768 28.7109 29.8721 28.5107 30.0479 28.1104C31.2002 25.6885 32.4648 23.2666 33.8418 20.8447C34.6621 19.3799 35.6338 18.0859 36.7568 16.9629C37.3721 16.3086 38.1338 15.9814 39.042 15.9814L40.668 15.9521C41.7422 15.9717 42.6309 16.2158 43.334 16.6846C44.0469 17.1533 44.6084 17.9004 45.0186 18.9258C45.4385 20 45.8096 21.0938 46.1318 22.207C46.3174 22.8125 46.5127 23.418 46.7178 24.0234C47.001 24.9023 47.4404 25.6934 48.0361 26.3965C48.1924 26.5527 48.2705 26.709 48.2705 26.8652C48.2705 27.0801 48.085 27.1875 47.7139 27.1875C47.4697 27.1875 47.2305 27.1436 46.9961 27.0557C45.0527 26.4404 43.6172 25.2246 42.6895 23.4082C42.2793 22.5879 41.9473 21.7383 41.6934 20.8594C41.5176 20.2832 41.3223 19.7217 41.1074 19.1748C40.9219 18.7842 40.7119 18.5889 40.4775 18.5889C40.2822 18.5889 40.0674 18.7402 39.833 19.043C39.8037 19.1016 39.7695 19.1553 39.7305 19.2041C38.5586 20.9326 37.4795 22.7197 36.4932 24.5654C35.6924 26.167 34.9502 27.793 34.2666 29.4434C33.6123 30.9766 33.2314 31.8506 33.124 32.0654C32.5479 33.374 31.6055 34.0283 30.2969 34.0283ZM54.9209 34.1455C53.5732 34.1455 52.1719 33.6182 50.7168 32.5635C50.668 32.5342 50.624 32.5 50.585 32.4609C49.7256 31.8848 49.1982 31.2988 49.0029 30.7031C48.8076 30.1172 48.71 29.585 48.71 29.1064C48.71 28.7744 48.7441 28.4326 48.8125 28.0811C49.125 26.2451 49.7256 24.502 50.6143 22.8516C50.9365 22.2656 51.249 21.6748 51.5518 21.0791C51.8838 20.4443 52.1719 19.9854 52.416 19.7021C52.875 19.1748 53.3047 18.6279 53.7051 18.0615C53.8613 17.8369 54.0273 17.6123 54.2031 17.3877C54.9844 16.3525 55.9561 15.5322 57.1182 14.9268C57.3916 14.79 57.6748 14.7217 57.9678 14.7217L58.7734 14.7363C59.2324 14.7363 59.6963 14.79 60.165 14.8975C60.4482 14.9658 60.7363 15.0293 61.0293 15.0879C61.2637 15.127 61.4932 15.1709 61.7178 15.2197C62.1475 15.3174 62.5088 15.5225 62.8018 15.835C62.9678 16.0303 63.0508 16.2061 63.0508 16.3623C63.0508 16.5576 62.8945 16.709 62.582 16.8164C62.2793 16.9238 61.9717 17.0361 61.6592 17.1533C61.083 17.3975 60.4873 17.5635 59.8721 17.6514C59.5693 17.6807 59.3057 17.8027 59.0811 18.0176C57.4014 19.5215 55.8193 21.8164 54.335 24.9023C53.3584 26.9727 52.8604 28.9062 52.8408 30.7031C52.8408 31.4355 53.0361 31.8018 53.4268 31.8018C53.5732 31.8018 53.7441 31.748 53.9395 31.6406C54.3984 31.3477 54.7842 30.9814 55.0967 30.542C55.5557 29.8975 55.9951 29.2432 56.415 28.5791C57.7334 26.4795 59.1299 24.4336 60.6045 22.4414C61.0244 21.8164 61.5762 21.5039 62.2598 21.5039C62.3965 21.5039 62.5479 21.5234 62.7139 21.5625C62.8896 21.5918 63.124 21.6064 63.417 21.6064C65.0674 21.6943 65.9219 22.5635 65.9805 24.2139V24.6094H65.9658L65.9805 24.7705L65.9658 25.2832C65.9658 25.7422 66.1172 26.1572 66.4199 26.5283C66.8008 27.0264 66.9912 27.373 66.9912 27.5684C66.9912 27.8418 66.7227 27.998 66.1855 28.0371C65.9316 28.0371 65.6924 27.9834 65.4678 27.876C64.6963 27.5146 63.9834 27.0605 63.3291 26.5137C63.0361 26.2109 62.7773 26.0596 62.5527 26.0596C62.3184 26.0596 62.1084 26.2305 61.9229 26.5723C61.3369 27.5684 60.7412 28.5547 60.1357 29.5312C59.0615 31.4844 57.8994 32.8662 56.6494 33.6768C56.1221 33.9893 55.5459 34.1455 54.9209 34.1455ZM72.8066 33.0322C72.709 33.0322 72.5967 33.0176 72.4697 32.9883C71.4932 32.7441 70.624 32.2852 69.8623 31.6113C69.5107 31.3184 69.3057 30.9375 69.2471 30.4688C69.1299 29.5215 69.0518 28.5693 69.0127 27.6123C68.8271 22.3193 68.7344 18.4131 68.7344 15.8936C68.9199 12.4756 69.1006 10.6982 69.2764 10.5615C69.4131 10.4736 69.5693 10.4297 69.7451 10.4297C69.9014 10.4297 70.0967 10.4541 70.3311 10.5029C71.2393 10.6689 71.8936 10.9814 72.2939 11.4404C72.7334 11.958 72.9531 12.7734 72.9531 13.8867C72.9629 14.1406 72.9775 14.3896 72.9971 14.6338C73.0361 14.8291 73.1436 14.9268 73.3193 14.9268C73.5732 14.9268 73.8857 14.6094 74.2568 13.9746C75.4678 12.2363 76.9619 10.8008 78.7393 9.66797C80.5264 8.52539 82.4551 7.72949 84.5254 7.28027C85.1699 7.14355 85.8193 7.0752 86.4736 7.0752C87.7236 7.0752 88.7539 7.27051 89.5645 7.66113C89.6621 7.70996 89.7109 7.79297 89.7109 7.91016C89.7109 7.99805 89.6523 8.07129 89.5352 8.12988C89.2715 8.19824 89.0029 8.24707 88.7295 8.27637C87.46 8.43262 86.0537 8.97461 84.5107 9.90234C84.3838 10 84.2471 10.083 84.1006 10.1514C83.2803 10.5322 82.5234 11.001 81.8301 11.5576C81.1465 12.1143 80.4873 12.7051 79.8525 13.3301C79.1689 14.0332 78.5293 14.8486 77.9336 15.7764C76.8887 17.3291 76.0439 18.9209 75.3994 20.5518C74.5107 22.7197 73.9395 24.9707 73.6855 27.3047C73.627 27.7148 73.5586 28.125 73.4805 28.5352C73.3047 29.4531 73.2168 30.1221 73.2168 30.542C73.2168 30.9131 73.2607 31.2891 73.3486 31.6699C73.3877 31.8457 73.4072 32.0557 73.4072 32.2998C73.4072 32.7881 73.207 33.0322 72.8066 33.0322ZM87.6309 34.5117C86.7129 34.5117 85.5752 34.0576 84.2178 33.1494C83.6709 32.7979 83.3682 32.2998 83.3096 31.6553C83.1631 30.376 83.0898 29.0918 83.0898 27.8027C83.0898 26.3086 83.1436 24.7217 83.251 23.042C83.251 21.9971 83.2656 21.0986 83.2949 20.3467C83.3242 19.6436 83.3389 18.8428 83.3389 17.9443C83.3389 17.5049 83.3486 17.1533 83.3682 16.8896C83.3877 16.6943 83.3975 16.499 83.3975 16.3037C83.3975 15.9912 83.373 15.6787 83.3242 15.3662V15.2637C83.3242 15.0098 83.4658 14.8584 83.749 14.8096C84.042 14.751 84.3398 14.7217 84.6426 14.7217C85.0527 14.7217 85.458 14.7754 85.8584 14.8828C86.3564 15.0586 86.7568 15.3857 87.0596 15.8643C87.3721 16.333 87.5381 16.8555 87.5576 17.4316C87.5576 18.75 87.5186 19.9463 87.4404 21.0205C87.4111 21.5088 87.3965 22.0508 87.3965 22.6465C87.3965 23.2422 87.3721 23.7988 87.3232 24.3164C87.3135 24.3848 87.3086 24.458 87.3086 24.5361C87.3086 24.7314 87.3477 24.9316 87.4258 25.1367C87.4844 25.2734 87.5576 25.3418 87.6455 25.3418C87.7041 25.3418 87.7725 25.3027 87.8506 25.2246C88.0459 25.0098 88.1924 24.7559 88.29 24.4629C88.7393 23.3594 89.1934 22.2607 89.6523 21.167C90.209 19.8584 90.873 18.6084 91.6445 17.417C92.0742 16.6943 92.6797 16.333 93.4609 16.333L93.8125 16.3477C93.9785 16.3672 94.1982 16.377 94.4717 16.377C95.5068 16.377 96.3271 16.9043 96.9326 17.959C97.0889 18.2324 97.1768 18.4717 97.1963 18.6768C97.2158 18.8818 97.2256 19.0479 97.2256 19.1748C97.2256 19.5068 97.1719 20.2295 97.0645 21.3428C97.0254 21.8213 97.0059 22.0996 97.0059 22.1777C97.0059 22.9102 97.1328 23.2764 97.3867 23.2764C97.5625 23.2764 97.7822 23.0127 98.0459 22.4854C99.042 20.3271 100.165 18.2422 101.415 16.2305C102.06 15.2441 102.602 14.7314 103.041 14.6924C103.393 14.6631 103.715 14.6484 104.008 14.6484C104.672 14.6484 105.238 14.7656 105.707 15C106.557 15.4297 106.981 16.1084 106.981 17.0361C106.981 17.124 106.942 17.7588 106.864 18.9404C106.786 20.3174 106.688 21.6895 106.571 23.0566C106.532 23.5449 106.513 24.0283 106.513 24.5068C106.444 29.0186 106.386 31.5771 106.337 32.1826C106.298 32.6807 106.059 32.9297 105.619 32.9297C104.604 32.8516 103.891 32.3584 103.48 31.4502C102.836 29.9854 102.499 28.4521 102.47 26.8506C102.45 26.3135 102.44 25.7764 102.44 25.2393L102.499 22.6025C102.499 21.7041 102.362 21.2549 102.089 21.2549C101.981 21.2549 101.85 21.333 101.693 21.4893C101.43 21.7822 101.225 22.1094 101.078 22.4707C100.531 23.7109 99.9893 24.9561 99.4521 26.2061C99.335 26.5088 99.2373 26.8164 99.1592 27.1289C99.0615 27.5879 98.9004 28.0225 98.6758 28.4326L98.5 28.7842C98.2363 29.2334 97.8701 29.458 97.4014 29.458C96.9326 29.458 96.415 29.3164 95.8486 29.0332C95.2432 28.7207 94.6523 28.3789 94.0762 28.0078C93.627 27.6758 93.334 27.2266 93.1973 26.6602C93.0605 26.1816 92.9727 25.6982 92.9336 25.21C92.8848 24.6143 92.8311 24.2627 92.7725 24.1553C92.7432 23.9795 92.7041 23.8037 92.6553 23.6279C92.6064 23.5303 92.5479 23.4814 92.4795 23.4814C92.3037 23.4814 92.1084 23.7305 91.8936 24.2285C91.4053 25.2246 91.0586 26.1865 90.8535 27.1143C90.6582 28.042 90.4141 28.9551 90.1211 29.8535C89.9453 30.4199 89.7793 30.9863 89.623 31.5527C89.5059 32.0117 89.2812 32.6904 88.9492 33.5889C88.7148 34.2041 88.2754 34.5117 87.6309 34.5117ZM113.632 32.4023C112.587 32.4023 111.669 31.9531 110.878 31.0547C110.614 30.7031 110.453 30.293 110.395 29.8242C110.229 29.0039 110.146 28.1689 110.146 27.3193V24.9463C110.146 23.5596 110.199 22.1191 110.307 20.625C110.346 19.9512 110.38 19.2676 110.409 18.5742C110.429 18.1738 110.458 17.7783 110.497 17.3877C110.556 16.792 110.585 16.1963 110.585 15.6006C110.585 15.1318 110.771 14.8633 111.142 14.7949C111.483 14.707 111.83 14.6631 112.182 14.6631C113.588 14.6631 114.389 15.3125 114.584 16.6113C114.672 17.2754 114.716 17.9443 114.716 18.6182C114.716 18.96 114.555 22.29 114.232 28.6084C114.164 29.1357 114.13 29.5996 114.13 30C114.13 30.4785 114.174 30.9619 114.262 31.4502C114.281 31.5576 114.291 31.6602 114.291 31.7578C114.291 32.1875 114.071 32.4023 113.632 32.4023ZM111.786 6.21094C111.503 6.21094 111.361 5.94727 111.361 5.41992C111.361 4.88281 111.327 4.14063 111.259 3.19336C111.19 2.30469 111.156 1.7334 111.156 1.47949C111.156 1.23535 111.195 1.0791 111.273 1.01074C111.361 0.942383 111.483 0.908203 111.64 0.908203C111.786 0.908203 111.889 0.917969 111.947 0.9375C113.119 1.02539 113.852 1.28418 114.145 1.71387C114.32 1.96777 114.408 2.3291 114.408 2.79785V3.09082C114.408 3.83301 114.145 4.53125 113.617 5.18555C113.51 5.3418 113.383 5.45898 113.236 5.53711C112.982 5.64453 112.733 5.77148 112.489 5.91797C112.177 6.11328 111.942 6.21094 111.786 6.21094ZM122.685 33.6328C121.327 33.6328 119.945 32.9541 118.539 31.5967C117.895 30.8936 117.572 28.75 117.572 25.166C117.572 24.3262 117.592 23.4912 117.631 22.6611C117.66 21.9678 117.68 21.2744 117.689 20.5811C117.709 19.79 117.748 18.999 117.807 18.208C117.885 17.2217 117.924 16.1084 117.924 14.8682C117.924 14.5166 118.1 14.3262 118.451 14.2969C118.666 14.2676 118.881 14.2529 119.096 14.2529C119.662 14.2529 120.224 14.3506 120.78 14.5459C121.776 14.9365 122.323 15.6592 122.421 16.7139C122.45 17.0459 122.465 17.8369 122.465 19.0869C122.377 20.8936 122.333 22.3193 122.333 23.3643C122.333 23.7939 122.47 24.0088 122.743 24.0088C122.948 24.0088 123.129 23.7988 123.285 23.3789C124.613 20.4492 125.814 18.3887 126.889 17.1973C127.318 16.6797 127.865 16.4209 128.529 16.4209H130.023C130.346 16.4209 130.658 16.4697 130.961 16.5674C132.436 16.9873 133.236 17.9736 133.363 19.5264C133.686 23.4814 133.983 26.0303 134.257 27.1729L134.345 27.583C134.413 28.0713 134.706 28.3545 135.224 28.4326C135.526 28.4717 135.746 28.5938 135.883 28.7988C136.098 29.1406 136.205 29.4287 136.205 29.6631C136.205 29.7803 136.166 29.8926 136.088 30C135.932 30.1758 135.673 30.2637 135.312 30.2637C134.169 30.2637 132.914 29.7217 131.547 28.6377C130.785 28.0029 130.297 27.1973 130.082 26.2207C129.779 25.0195 129.579 23.8037 129.481 22.5732C129.472 22.5244 129.467 22.4707 129.467 22.4121C129.467 22.1973 129.418 21.9873 129.32 21.7822C129.232 21.6162 129.115 21.5332 128.969 21.5332C128.881 21.5332 128.798 21.5625 128.72 21.6211C128.466 21.8457 128.305 22.0654 128.236 22.2803C126.645 24.9463 125.468 27.7832 124.706 30.791C124.56 31.4258 124.364 32.0459 124.12 32.6514C123.837 33.3057 123.358 33.6328 122.685 33.6328ZM141.112 27.9932C141.376 27.9736 141.786 27.4219 142.343 26.3379C143.319 24.4238 144.252 22.417 145.141 20.3174C145.268 20.0439 145.331 19.8096 145.331 19.6143L145.316 19.248C145.316 18.8477 145.424 18.4814 145.639 18.1494C145.863 17.8174 145.976 17.4902 145.976 17.168C145.976 16.875 145.863 16.7285 145.639 16.7285C145.395 16.7285 145.092 16.9873 144.73 17.5049C144.242 18.1592 143.812 18.8428 143.441 19.5557C142.494 21.5088 141.728 23.5596 141.142 25.708C140.917 26.5381 140.805 27.1436 140.805 27.5244C140.805 27.8369 140.907 27.9932 141.112 27.9932ZM144.467 56.4844H144.247C142.499 56.416 140.912 55.874 139.486 54.8584C139.008 54.5068 138.656 54.0674 138.432 53.54C137.914 52.3291 137.655 51.0693 137.655 49.7607C137.655 48.8135 137.748 47.876 137.934 46.9482L138.065 46.084C138.153 45.5664 138.31 45.0684 138.534 44.5898C138.593 44.4141 138.646 44.292 138.695 44.2236C138.744 44.165 138.817 44.1357 138.915 44.1357C139.071 44.1357 139.198 44.2432 139.296 44.458C139.374 44.624 139.486 45 139.633 45.5859L140.028 46.7871C140.126 47.1582 140.18 47.5391 140.189 47.9297L140.175 48.1641C140.175 49.502 140.292 50.752 140.526 51.9141C140.692 52.5488 140.927 53.1494 141.229 53.7158C141.454 54.1162 141.698 54.3164 141.962 54.3164C142.206 54.3164 142.46 54.1797 142.724 53.9062C143.593 52.8906 144.262 51.7578 144.73 50.5078C145.688 48.0469 146.396 45.5078 146.854 42.8906C146.933 42.373 147.021 41.8555 147.118 41.3379C147.587 38.6816 147.938 36.0156 148.173 33.3398C148.368 31.5137 148.466 29.5215 148.466 27.3633L148.48 26.0156C148.48 24.6777 148.329 24.0088 148.026 24.0088C147.929 24.0088 147.816 24.0967 147.689 24.2725C147.484 24.5557 147.309 24.8584 147.162 25.1807C146.469 26.7041 145.688 28.1787 144.818 29.6045C144.584 29.9951 144.32 30.3662 144.027 30.7178C143.441 31.3721 142.973 31.7383 142.621 31.8164C142.201 31.9141 141.884 31.9629 141.669 31.9629C141.249 31.9629 140.78 31.875 140.263 31.6992C139.13 31.2891 138.139 30.6445 137.289 29.7656C136.889 29.375 136.659 29.0039 136.601 28.6523C136.522 28.2129 136.483 27.8369 136.483 27.5244C136.483 27.3096 136.498 27.0996 136.527 26.8945C136.635 25.8887 136.835 24.8535 137.128 23.7891C137.431 22.5391 137.831 21.3721 138.329 20.2881C138.583 19.7412 138.783 19.1699 138.93 18.5742C139.057 18.1738 139.257 17.8125 139.53 17.4902C139.647 17.334 140.082 16.6455 140.834 15.4248C141.352 14.5654 141.845 14.0479 142.313 13.8721C142.841 13.6865 143.31 13.5938 143.72 13.5938C144.286 13.5938 145.116 13.7158 146.21 13.96C147.665 14.1943 148.432 14.8682 148.51 15.9814C148.51 16.4502 148.739 16.7285 149.198 16.8164C150.097 17.0117 150.761 17.4023 151.19 17.9883C151.63 18.5742 151.913 19.3018 152.04 20.1709C152.323 22.0166 152.465 23.7939 152.465 25.5029C152.494 26.3916 152.509 27.2607 152.509 28.1104C152.509 30.5811 152.401 32.8809 152.187 35.0098C151.698 40.1758 150.932 44.7119 149.887 48.6182C149.174 51.1865 148.329 53.2324 147.353 54.7559C146.62 55.8398 145.658 56.416 144.467 56.4844ZM172.987 33.2373H172.826C172.094 33.2373 171.225 32.9639 170.219 32.417C169.877 32.2119 169.613 31.9141 169.428 31.5234C168.822 30.3516 168.427 29.1113 168.241 27.8027C167.938 26.084 167.787 24.3359 167.787 22.5586C167.777 22.1582 167.763 21.792 167.743 21.46C167.724 21.0498 167.714 20.6348 167.714 20.2148C167.714 18.584 167.782 16.7432 167.919 14.6924C167.968 14.0576 167.992 13.6279 167.992 13.4033C167.992 12.8662 167.855 12.5977 167.582 12.5977C167.504 12.5977 167.411 12.6172 167.304 12.6562C167.108 12.7441 166.913 12.8223 166.718 12.8906C166.444 12.9785 166.181 13.0908 165.927 13.2275C165.38 13.5303 164.818 13.7988 164.242 14.0332C163.812 14.2188 163.393 14.4141 162.982 14.6191C162.65 14.7754 162.348 14.8535 162.074 14.8535C161.859 14.8535 161.659 14.8047 161.474 14.707C161.054 14.502 160.727 14.1748 160.492 13.7256C160.121 12.9443 159.936 12.0654 159.936 11.0889L159.921 10.7666C159.921 10.4932 160.053 10.3174 160.316 10.2393C163.324 9.09668 165.854 8.0957 167.904 7.23633C168.402 7.04102 168.666 6.67969 168.695 6.15234C168.773 5.89844 168.837 5.60547 168.886 5.27344C168.954 4.81445 169.052 4.45801 169.179 4.2041C169.774 3.36426 170.297 2.91992 170.746 2.87109C171.205 2.8125 171.513 2.7832 171.669 2.7832C172.216 2.7832 172.709 2.90039 173.148 3.13477C173.715 3.4375 174.027 3.75 174.086 4.07227C174.105 4.33594 174.159 4.51172 174.247 4.59961C174.345 4.67773 174.481 4.7168 174.657 4.7168C175.165 4.7168 175.775 4.58496 176.488 4.32129C180.209 3.15918 183.314 2.5293 185.805 2.43164C186.381 2.43164 186.933 2.51465 187.46 2.68066C187.831 2.78809 188.085 2.96875 188.222 3.22266C188.368 3.47656 188.441 3.70117 188.441 3.89648C188.441 4.12109 188.378 4.37012 188.251 4.64355C188.124 4.90723 187.914 5.05859 187.621 5.09766C187.27 5.17578 186.947 5.30762 186.654 5.49316C186.41 5.62988 186.151 5.73242 185.878 5.80078C184.882 6.05469 183.9 6.35742 182.934 6.70898C182.416 6.88477 181.894 7.05078 181.366 7.20703C180.116 7.58789 178.866 8.03223 177.616 8.54004C176.63 8.94043 175.629 9.30664 174.613 9.63867C173.998 9.84375 173.681 10.2686 173.661 10.9131C173.563 12.5146 173.441 14.1113 173.295 15.7031L173.222 16.8604C173.192 17.6123 173.114 18.3643 172.987 19.1162C172.958 20.6885 172.934 21.6016 172.914 21.8555C172.875 22.5391 172.855 23.335 172.855 24.2432L172.899 25.7666C172.948 28.3447 173.129 30.21 173.441 31.3623C173.607 32.1045 173.69 32.5391 173.69 32.666C173.69 33.0469 173.456 33.2373 172.987 33.2373ZM182.67 33.0322C182.572 33.0322 182.46 33.0176 182.333 32.9883C181.356 32.7441 180.487 32.2852 179.726 31.6113C179.374 31.3184 179.169 30.9375 179.11 30.4688C178.993 29.5215 178.915 28.5693 178.876 27.6123C178.69 22.3193 178.598 18.4131 178.598 15.8936C178.783 12.4756 178.964 10.6982 179.14 10.5615C179.276 10.4736 179.433 10.4297 179.608 10.4297C179.765 10.4297 179.96 10.4541 180.194 10.5029C181.103 10.6689 181.757 10.9814 182.157 11.4404C182.597 11.958 182.816 12.7734 182.816 13.8867C182.826 14.1406 182.841 14.3896 182.86 14.6338C182.899 14.8291 183.007 14.9268 183.183 14.9268C183.437 14.9268 183.749 14.6094 184.12 13.9746C185.331 12.2363 186.825 10.8008 188.603 9.66797C190.39 8.52539 192.318 7.72949 194.389 7.28027C195.033 7.14355 195.683 7.0752 196.337 7.0752C197.587 7.0752 198.617 7.27051 199.428 7.66113C199.525 7.70996 199.574 7.79297 199.574 7.91016C199.574 7.99805 199.516 8.07129 199.398 8.12988C199.135 8.19824 198.866 8.24707 198.593 8.27637C197.323 8.43262 195.917 8.97461 194.374 9.90234C194.247 10 194.11 10.083 193.964 10.1514C193.144 10.5322 192.387 11.001 191.693 11.5576C191.01 12.1143 190.351 12.7051 189.716 13.3301C189.032 14.0332 188.393 14.8486 187.797 15.7764C186.752 17.3291 185.907 18.9209 185.263 20.5518C184.374 22.7197 183.803 24.9707 183.549 27.3047C183.49 27.7148 183.422 28.125 183.344 28.5352C183.168 29.4531 183.08 30.1221 183.08 30.542C183.08 30.9131 183.124 31.2891 183.212 31.6699C183.251 31.8457 183.271 32.0557 183.271 32.2998C183.271 32.7881 183.07 33.0322 182.67 33.0322ZM197.86 21.4307C198.319 21.4307 198.935 20.6104 199.706 18.9697C200.106 18.0322 200.404 17.0654 200.6 16.0693C200.619 15.9619 200.629 15.8545 200.629 15.7471C200.629 15.4346 200.512 15.2246 200.277 15.1172C200.219 15.0977 200.16 15.0879 200.102 15.0879C199.926 15.0879 199.726 15.2393 199.501 15.542C198.427 16.8896 197.699 18.5693 197.318 20.5811C197.309 20.6299 197.304 20.6885 197.304 20.7568C197.304 20.9033 197.323 21.0254 197.362 21.123C197.401 21.2207 197.47 21.2988 197.567 21.3574C197.675 21.4062 197.772 21.4307 197.86 21.4307ZM200.043 32.4023C198.148 32.4023 196.288 31.6602 194.462 30.1758C193.729 29.5801 193.261 28.8184 193.056 27.8906C192.978 27.5195 192.89 27.1436 192.792 26.7627C192.655 26.1865 192.533 25.6104 192.426 25.0342C192.387 24.7119 192.367 24.3848 192.367 24.0527C192.367 23.6328 192.401 23.208 192.47 22.7783C192.587 22.0654 192.65 21.5381 192.66 21.1963C192.66 20.8545 192.714 20.542 192.821 20.2588C192.89 20.0928 192.938 19.9316 192.968 19.7754C193.505 17.4609 194.354 15.5811 195.517 14.1357C195.644 13.9795 195.766 13.8184 195.883 13.6523C196.293 13.1348 196.825 12.8662 197.479 12.8467L198.3 12.832L199.193 12.8467C199.467 12.8174 199.735 12.8027 199.999 12.8027C202.099 12.8027 203.495 13.6328 204.188 15.293C204.306 15.5957 204.364 15.9033 204.364 16.2158C204.364 17.0947 204.208 17.959 203.896 18.8086C203.573 19.8145 203.134 20.7666 202.577 21.665C201.864 22.8076 200.927 23.3789 199.765 23.3789C199.306 23.3789 198.759 23.2715 198.124 23.0566C197.753 22.9297 197.509 22.8662 197.392 22.8662C197.03 22.8662 196.83 23.1982 196.791 23.8623L196.776 24.4629C196.776 26.0156 197.05 27.5244 197.597 28.9893C197.753 29.4385 197.997 29.8389 198.329 30.1904C198.544 30.415 198.72 30.5371 198.856 30.5566C198.993 30.5859 199.091 30.6006 199.149 30.6006C199.306 30.6006 199.486 30.5518 199.691 30.4541C200.414 30.1221 201.073 29.6826 201.669 29.1357C203.749 26.9385 205.399 25.0244 206.62 23.3936C206.991 22.9248 207.245 22.6904 207.382 22.6904C207.421 22.6904 207.465 22.7051 207.514 22.7344C207.65 22.8223 207.719 22.9639 207.719 23.1592C207.719 23.374 207.665 24.0479 207.558 25.1807C207.548 25.3662 207.509 25.542 207.44 25.708C207.392 25.7959 207.348 25.8887 207.309 25.9863C207.035 26.6406 206.576 27.4805 205.932 28.5059C205.297 29.5215 204.696 30.2637 204.13 30.7324C203.729 31.0547 203.324 31.3623 202.914 31.6553C202.328 32.0557 201.684 32.2852 200.98 32.3438C200.658 32.3828 200.346 32.4023 200.043 32.4023ZM211.981 34.1455C210.634 34.1455 209.232 33.6182 207.777 32.5635C207.729 32.5342 207.685 32.5 207.646 32.4609C206.786 31.8848 206.259 31.2988 206.063 30.7031C205.868 30.1172 205.771 29.585 205.771 29.1064C205.771 28.7744 205.805 28.4326 205.873 28.0811C206.186 26.2451 206.786 24.502 207.675 22.8516C207.997 22.2656 208.31 21.6748 208.612 21.0791C208.944 20.4443 209.232 19.9854 209.477 19.7021C209.936 19.1748 210.365 18.6279 210.766 18.0615C210.922 17.8369 211.088 17.6123 211.264 17.3877C212.045 16.3525 213.017 15.5322 214.179 14.9268C214.452 14.79 214.735 14.7217 215.028 14.7217L215.834 14.7363C216.293 14.7363 216.757 14.79 217.226 14.8975C217.509 14.9658 217.797 15.0293 218.09 15.0879C218.324 15.127 218.554 15.1709 218.778 15.2197C219.208 15.3174 219.569 15.5225 219.862 15.835C220.028 16.0303 220.111 16.2061 220.111 16.3623C220.111 16.5576 219.955 16.709 219.643 16.8164C219.34 16.9238 219.032 17.0361 218.72 17.1533C218.144 17.3975 217.548 17.5635 216.933 17.6514C216.63 17.6807 216.366 17.8027 216.142 18.0176C214.462 19.5215 212.88 21.8164 211.396 24.9023C210.419 26.9727 209.921 28.9062 209.901 30.7031C209.901 31.4355 210.097 31.8018 210.487 31.8018C210.634 31.8018 210.805 31.748 211 31.6406C211.459 31.3477 211.845 30.9814 212.157 30.542C212.616 29.8975 213.056 29.2432 213.476 28.5791C214.794 26.4795 216.19 24.4336 217.665 22.4414C218.085 21.8164 218.637 21.5039 219.32 21.5039C219.457 21.5039 219.608 21.5234 219.774 21.5625C219.95 21.5918 220.185 21.6064 220.478 21.6064C222.128 21.6943 222.982 22.5635 223.041 24.2139V24.6094H223.026L223.041 24.7705L223.026 25.2832C223.026 25.7422 223.178 26.1572 223.48 26.5283C223.861 27.0264 224.052 27.373 224.052 27.5684C224.052 27.8418 223.783 27.998 223.246 28.0371C222.992 28.0371 222.753 27.9834 222.528 27.876C221.757 27.5146 221.044 27.0605 220.39 26.5137C220.097 26.2109 219.838 26.0596 219.613 26.0596C219.379 26.0596 219.169 26.2305 218.983 26.5723C218.397 27.5684 217.802 28.5547 217.196 29.5312C216.122 31.4844 214.96 32.8662 213.71 33.6768C213.183 33.9893 212.606 34.1455 211.981 34.1455ZM229.149 35.1416C228.759 35.1416 228.358 35.1074 227.948 35.0391C227.851 35.0098 227.636 34.9121 227.304 34.7461C226.981 34.5801 226.659 34.4043 226.337 34.2188C226.024 34.0332 225.829 33.9014 225.751 33.8232C225.634 33.6865 225.575 33.5693 225.575 33.4717C225.575 33.3252 225.702 33.2178 225.956 33.1494C227.021 33.0225 228.075 32.7051 229.12 32.1973C230.067 31.7383 230.995 31.2256 231.903 30.6592C233.163 29.9365 234.345 29.1064 235.448 28.1689C235.888 27.7881 236.107 27.5146 236.107 27.3486C236.107 27.1338 236.015 27.002 235.829 26.9531C235.731 26.9336 235.58 26.9238 235.375 26.9238C234.232 26.9727 232.489 26.9971 230.146 26.9971C228.749 26.9971 227.582 26.4697 226.645 25.415C225.971 24.6436 225.409 23.8086 224.96 22.9102C224.706 22.4707 224.579 22.002 224.579 21.5039C224.579 21.0156 224.721 20.4883 225.004 19.9219C226.615 17.1387 228.969 14.7021 232.064 12.6123C232.68 12.1729 233.354 11.8457 234.086 11.6309C234.262 11.582 234.438 11.5576 234.613 11.5576C235.199 11.5576 236.098 11.9971 237.309 12.876C237.66 13.1104 237.895 13.4326 238.012 13.8428C238.041 13.9404 238.056 14.0283 238.056 14.1064C238.056 14.4873 237.782 14.7021 237.235 14.751C236.083 14.8877 235.077 15.3369 234.218 16.0986C231.952 17.9443 230.009 20.0879 228.388 22.5293L228.329 22.6318C228.114 22.9248 228.007 23.1885 228.007 23.4229C228.007 23.8818 228.49 24.1113 229.457 24.1113C230.98 24.1309 232.509 24.1553 234.042 24.1846C235.585 24.2139 237.079 24.7705 238.524 25.8545C239.325 26.4697 239.726 27.1777 239.726 27.9785C239.726 28.6133 239.457 29.1992 238.92 29.7363C236.908 31.8359 234.564 33.4521 231.889 34.585C231 34.9561 230.087 35.1416 229.149 35.1416ZM246.112 31.4502C245.673 31.4502 245.209 31.333 244.721 31.0986C243.793 30.6396 242.953 30.0537 242.201 29.3408C241.322 28.4814 240.883 26.4893 240.883 23.3643C240.883 21.3428 240.99 19.7852 241.205 18.6914C241.352 17.9688 241.444 17.3291 241.483 16.7725C241.513 16.3037 241.728 16.0693 242.128 16.0693C243.847 16.0693 244.774 16.6455 244.911 17.7979C244.97 18.1885 244.999 18.5791 244.999 18.9697C244.999 19.3311 244.975 19.6924 244.926 20.0537C244.857 20.5322 244.823 21.0156 244.823 21.5039L244.853 22.3682C244.853 23.1396 244.818 23.9062 244.75 24.668L244.735 25.3564C244.735 25.8252 244.76 26.2891 244.809 26.748C244.838 27.0605 244.857 27.373 244.867 27.6855C244.887 27.8125 244.906 27.8857 244.926 27.9053C245.023 28.2178 245.175 28.374 245.38 28.374C245.507 28.374 245.658 28.3105 245.834 28.1836C246.527 27.5977 247.88 25.1465 249.892 20.8301C250.683 19.082 251.264 17.8955 251.635 17.2705C251.898 16.8408 252.123 16.3867 252.309 15.9082C252.436 15.6152 252.66 15.4492 252.982 15.4102C253.227 15.3711 253.466 15.3516 253.7 15.3516C255.233 15.3516 256.137 15.9131 256.41 17.0361C256.488 17.3682 256.527 17.7051 256.527 18.0469C256.527 18.2129 256.518 18.3838 256.498 18.5596C255.98 22.0654 255.722 25.3955 255.722 28.5498L255.736 29.7949C255.736 30.1172 255.639 30.3711 255.443 30.5566C255.316 30.6641 255.155 30.7178 254.96 30.7178C254.813 30.7178 254.643 30.6885 254.447 30.6299C253.822 30.4053 253.334 30.0098 252.982 29.4434C252.533 28.7305 252.23 27.9639 252.074 27.1436C251.986 26.6943 251.908 26.2207 251.84 25.7227C251.781 25.1562 251.625 24.873 251.371 24.873C251.195 24.873 251.068 25 250.99 25.2539C250.824 25.6348 250.644 26.0107 250.448 26.3818C250.312 26.626 250.185 26.875 250.067 27.1289C249.579 28.2031 248.988 29.2139 248.295 30.1611C247.67 31.0205 246.942 31.4502 246.112 31.4502ZM263.266 33.0322C263.168 33.0322 263.056 33.0176 262.929 32.9883C261.952 32.7441 261.083 32.2852 260.321 31.6113C259.97 31.3184 259.765 30.9375 259.706 30.4688C259.589 29.5215 259.511 28.5693 259.472 27.6123C259.286 22.3193 259.193 18.4131 259.193 15.8936C259.379 12.4756 259.56 10.6982 259.735 10.5615C259.872 10.4736 260.028 10.4297 260.204 10.4297C260.36 10.4297 260.556 10.4541 260.79 10.5029C261.698 10.6689 262.353 10.9814 262.753 11.4404C263.192 11.958 263.412 12.7734 263.412 13.8867C263.422 14.1406 263.437 14.3896 263.456 14.6338C263.495 14.8291 263.603 14.9268 263.778 14.9268C264.032 14.9268 264.345 14.6094 264.716 13.9746C265.927 12.2363 267.421 10.8008 269.198 9.66797C270.985 8.52539 272.914 7.72949 274.984 7.28027C275.629 7.14355 276.278 7.0752 276.933 7.0752C278.183 7.0752 279.213 7.27051 280.023 7.66113C280.121 7.70996 280.17 7.79297 280.17 7.91016C280.17 7.99805 280.111 8.07129 279.994 8.12988C279.73 8.19824 279.462 8.24707 279.188 8.27637C277.919 8.43262 276.513 8.97461 274.97 9.90234C274.843 10 274.706 10.083 274.56 10.1514C273.739 10.5322 272.982 11.001 272.289 11.5576C271.605 12.1143 270.946 12.7051 270.312 13.3301C269.628 14.0332 268.988 14.8486 268.393 15.7764C267.348 17.3291 266.503 18.9209 265.858 20.5518C264.97 22.7197 264.398 24.9707 264.145 27.3047C264.086 27.7148 264.018 28.125 263.939 28.5352C263.764 29.4531 263.676 30.1221 263.676 30.542C263.676 30.9131 263.72 31.2891 263.808 31.6699C263.847 31.8457 263.866 32.0557 263.866 32.2998C263.866 32.7881 263.666 33.0322 263.266 33.0322ZM279.643 22.9541C279.887 22.9346 280.111 22.832 280.316 22.6465C280.766 22.2656 281.122 21.8066 281.386 21.2695C281.972 20.2148 282.431 19.1113 282.763 17.959C283.124 16.7871 283.305 15.625 283.305 14.4727C283.305 13.7305 283.261 13.3447 283.173 13.3154C283.085 13.2861 283.017 13.2715 282.968 13.2715C282.87 13.2715 282.777 13.3008 282.689 13.3594C282.338 13.6328 282.025 13.9941 281.752 14.4434C281.566 14.7461 281.391 15.0098 281.225 15.2344C280.189 16.6699 279.33 18.4033 278.646 20.4346C278.314 21.3916 278.148 21.9629 278.148 22.1484C278.148 22.3828 278.295 22.5537 278.588 22.6611C278.783 22.7295 278.969 22.7979 279.145 22.8662C279.32 22.9248 279.486 22.9541 279.643 22.9541ZM296.767 38.8623C295.722 38.8623 294.828 38.6768 294.086 38.3057C293.842 38.1689 293.583 38.0469 293.31 37.9395C292.177 37.4609 291.601 37.0605 291.581 36.7383C291.581 36.6016 291.649 36.5332 291.786 36.5332C291.864 36.5332 291.962 36.5674 292.079 36.6357C292.938 37.0947 293.642 37.3242 294.188 37.3242C294.472 37.3242 294.789 37.2461 295.141 37.0898C298.041 35.8594 300.639 34.0234 302.934 31.582C303.5 30.9863 303.974 30.3271 304.354 29.6045C304.511 29.3311 304.589 29.0576 304.589 28.7842C304.589 28.4326 304.428 28.208 304.105 28.1104C303.881 28.0518 302.665 27.8662 300.458 27.5537C299.022 27.3096 297.665 26.8604 296.386 26.2061C296.142 26.0791 295.448 25.5957 294.306 24.7559C293.827 24.4531 293.402 24.0674 293.031 23.5986C292.826 23.374 292.646 23.2617 292.489 23.2617C292.323 23.2715 292.172 23.3984 292.035 23.6426C290.014 26.7871 288.344 29.1357 287.025 30.6885C285.98 31.9873 284.818 32.998 283.539 33.7207C282.396 34.4727 281.103 34.8486 279.657 34.8486C278.192 34.8486 276.806 34.4141 275.497 33.5449L274.56 32.8857C273.31 32.0557 272.577 30.9033 272.362 29.4287C272.284 29.0283 272.245 28.5791 272.245 28.0811C272.245 26.8994 272.504 25.459 273.021 23.7598L273.856 20.874C274.901 18.1104 276.522 15.4297 278.72 12.832L279.877 11.4844C280.258 11.1523 280.697 10.9717 281.195 10.9424L282.001 10.9277C284.472 10.9277 285.897 11.4941 286.278 12.627C286.571 13.4473 286.718 14.2578 286.718 15.0586C286.708 15.6445 286.688 16.2256 286.659 16.8018C286.64 17.3779 286.474 18.291 286.161 19.541C285.985 20.2246 285.731 20.8838 285.399 21.5186C285.282 21.7334 285.194 21.9482 285.136 22.1631C284.94 22.9834 284.403 23.7061 283.524 24.3311C283.017 24.6729 282.45 24.8438 281.825 24.8438C281.278 24.8438 280.673 24.7363 280.009 24.5215C279.511 24.3652 279.052 24.1162 278.632 23.7744C278.397 23.5596 278.178 23.4521 277.973 23.4521C277.709 23.4521 277.533 23.6523 277.445 24.0527C277.25 24.7266 277.123 25.4053 277.064 26.0889C277.035 26.4209 276.991 26.748 276.933 27.0703C276.835 27.5684 276.786 28.0566 276.786 28.5352C276.796 28.7793 276.815 29.0234 276.845 29.2676C276.845 30.625 277.069 31.6455 277.519 32.3291C277.714 32.6416 277.88 32.8174 278.017 32.8564C278.163 32.8955 278.275 32.915 278.354 32.915C278.529 32.9053 278.725 32.8467 278.939 32.7393C280.639 31.9092 282.265 30.5225 283.817 28.5791C284.989 27.1533 286.078 25.6445 287.084 24.0527C287.27 23.7598 287.46 23.4766 287.655 23.2031C288.144 22.5391 288.583 21.8506 288.974 21.1377C289.569 20.1221 290.209 19.1309 290.893 18.1641C291.459 17.3926 291.85 16.5381 292.064 15.6006C292.494 13.8818 293.085 12.1338 293.837 10.3564L295.536 6.25488C296.044 5.06348 296.61 3.90137 297.235 2.76855C297.479 2.19238 297.86 1.9043 298.378 1.9043C298.456 1.9043 298.539 1.91406 298.627 1.93359C299.184 2.02148 299.818 2.06543 300.531 2.06543C301.166 2.06543 301.757 2.23633 302.304 2.57812C302.665 2.76367 302.846 2.98828 302.846 3.25195C302.846 3.42773 302.768 3.61816 302.611 3.82324C301.234 5.91309 299.867 8.93555 298.51 12.8906L297.88 14.6191C297.226 16.3574 296.796 18.1494 296.591 19.9951C296.552 20.3271 296.532 20.6494 296.532 20.9619C296.532 22.6416 297.084 24.0088 298.188 25.0635C298.5 25.3467 298.852 25.5518 299.242 25.6787C300.219 26.0205 301.229 26.2402 302.274 26.3379C303.661 26.4551 305.014 26.6895 306.332 27.041C306.742 27.1582 307.147 27.3047 307.548 27.4805C308.085 27.7344 308.549 28.0957 308.939 28.5645C309.271 28.9551 309.438 29.3652 309.438 29.7949C309.438 30.0684 309.379 30.3467 309.262 30.6299C308.92 31.4697 308.437 32.2168 307.812 32.8711C306.933 33.7988 306.229 34.4385 305.702 34.79C304.188 35.9521 302.758 36.8848 301.41 37.5879C299.848 38.4375 298.3 38.8623 296.767 38.8623Z" fill="#283655"/>
</svg>
